<mxfile host="drawio-plugin" modified="2024-12-19T11:49:02.778Z" agent="Mozilla/5.0 (X11; Linux x86_64) AppleWebKit/537.36 (KHTML, like Gecko) Chrome/122.0.0.0 Safari/537.36" etag="tmS0vNwHhaaUrpWmjO8l" version="22.1.22" type="embed" pages="5">
  <diagram id="Yn2PilmxO-FOZCbevGw2" name="Data Analize">
    <mxGraphModel dx="934" dy="768" grid="1" gridSize="10" guides="1" tooltips="1" connect="1" arrows="1" fold="1" page="1" pageScale="1" pageWidth="850" pageHeight="1100" math="0" shadow="0">
      <root>
        <mxCell id="0" />
        <mxCell id="1" parent="0" />
        <mxCell id="-sAhlAxkaTWdB6cffGZN-29" style="edgeStyle=orthogonalEdgeStyle;rounded=0;orthogonalLoop=1;jettySize=auto;html=1;exitX=1;exitY=0.5;exitDx=0;exitDy=0;entryX=0;entryY=0.5;entryDx=0;entryDy=0;fontFamily=Helvetica;fontSize=12;fontColor=default;" parent="1" source="-sAhlAxkaTWdB6cffGZN-18" target="-sAhlAxkaTWdB6cffGZN-19" edge="1">
          <mxGeometry relative="1" as="geometry" />
        </mxCell>
        <mxCell id="-sAhlAxkaTWdB6cffGZN-18" value="Страница" style="swimlane;strokeColor=default;strokeWidth=1;align=center;verticalAlign=middle;fontFamily=Helvetica;fontSize=12;fontColor=default;fillColor=default;gradientColor=none;html=1;startSize=23;" parent="1" vertex="1">
          <mxGeometry x="40" y="40" width="200" height="160" as="geometry" />
        </mxCell>
        <mxCell id="-sAhlAxkaTWdB6cffGZN-13" value="&lt;p style=&quot;margin:0px;margin-top:4px;text-align:center;&quot;&gt;&lt;b&gt;Продукт[]&lt;/b&gt;&lt;/p&gt;&lt;hr&gt;&amp;nbsp;категория&lt;br&gt;&amp;nbsp;название&lt;br&gt;&amp;nbsp;картинка&lt;br&gt;&amp;nbsp;цена" style="verticalAlign=top;align=left;overflow=fill;fontSize=12;fontFamily=Helvetica;html=1;whiteSpace=wrap;strokeColor=default;strokeWidth=1;fontColor=default;fillColor=default;gradientColor=none;" parent="-sAhlAxkaTWdB6cffGZN-18" vertex="1">
          <mxGeometry x="20" y="40" width="160" height="100" as="geometry" />
        </mxCell>
        <mxCell id="-sAhlAxkaTWdB6cffGZN-30" style="edgeStyle=orthogonalEdgeStyle;rounded=0;orthogonalLoop=1;jettySize=auto;html=1;exitX=1;exitY=0.5;exitDx=0;exitDy=0;entryX=0;entryY=0.5;entryDx=0;entryDy=0;fontFamily=Helvetica;fontSize=12;fontColor=default;" parent="1" source="-sAhlAxkaTWdB6cffGZN-19" target="-sAhlAxkaTWdB6cffGZN-22" edge="1">
          <mxGeometry relative="1" as="geometry" />
        </mxCell>
        <mxCell id="-sAhlAxkaTWdB6cffGZN-19" value="Модальное окно - детали" style="swimlane;strokeColor=default;strokeWidth=1;align=center;verticalAlign=middle;fontFamily=Helvetica;fontSize=12;fontColor=default;fillColor=default;gradientColor=none;html=1;" parent="1" vertex="1">
          <mxGeometry x="280" y="40" width="200" height="160" as="geometry" />
        </mxCell>
        <mxCell id="-sAhlAxkaTWdB6cffGZN-20" value="&lt;p style=&quot;margin:0px;margin-top:4px;text-align:center;&quot;&gt;&lt;b&gt;Продукт&lt;/b&gt;&lt;/p&gt;&lt;hr&gt;&amp;nbsp;категория&lt;br&gt;&amp;nbsp;название&lt;br&gt;&amp;nbsp;картинка&lt;br&gt;&amp;nbsp;описание&lt;br&gt;&amp;nbsp;цена" style="verticalAlign=top;align=left;overflow=fill;fontSize=12;fontFamily=Helvetica;html=1;whiteSpace=wrap;strokeColor=default;strokeWidth=1;fontColor=default;fillColor=default;gradientColor=none;" parent="-sAhlAxkaTWdB6cffGZN-19" vertex="1">
          <mxGeometry x="20" y="40" width="160" height="110" as="geometry" />
        </mxCell>
        <mxCell id="-sAhlAxkaTWdB6cffGZN-31" style="edgeStyle=orthogonalEdgeStyle;rounded=0;orthogonalLoop=1;jettySize=auto;html=1;exitX=0.5;exitY=1;exitDx=0;exitDy=0;entryX=0.5;entryY=0;entryDx=0;entryDy=0;fontFamily=Helvetica;fontSize=12;fontColor=default;" parent="1" source="-sAhlAxkaTWdB6cffGZN-22" target="-sAhlAxkaTWdB6cffGZN-26" edge="1">
          <mxGeometry relative="1" as="geometry" />
        </mxCell>
        <mxCell id="-sAhlAxkaTWdB6cffGZN-22" value="Модальное окно - корзина" style="swimlane;strokeColor=default;strokeWidth=1;align=center;verticalAlign=middle;fontFamily=Helvetica;fontSize=12;fontColor=default;fillColor=default;gradientColor=none;html=1;" parent="1" vertex="1">
          <mxGeometry x="520" y="40" width="200" height="160" as="geometry" />
        </mxCell>
        <mxCell id="-sAhlAxkaTWdB6cffGZN-23" value="&lt;p style=&quot;margin:0px;margin-top:4px;text-align:center;&quot;&gt;&lt;b&gt;Продукт[]&lt;/b&gt;&lt;/p&gt;&lt;hr&gt;&amp;nbsp;название&lt;br&gt;&amp;nbsp;цена" style="verticalAlign=top;align=left;overflow=fill;fontSize=12;fontFamily=Helvetica;html=1;whiteSpace=wrap;strokeColor=default;strokeWidth=1;fontColor=default;fillColor=default;gradientColor=none;" parent="-sAhlAxkaTWdB6cffGZN-22" vertex="1">
          <mxGeometry x="20" y="40" width="160" height="70" as="geometry" />
        </mxCell>
        <mxCell id="-sAhlAxkaTWdB6cffGZN-34" style="edgeStyle=orthogonalEdgeStyle;rounded=0;orthogonalLoop=1;jettySize=auto;html=1;exitX=1;exitY=0.5;exitDx=0;exitDy=0;entryX=0;entryY=0.5;entryDx=0;entryDy=0;fontFamily=Helvetica;fontSize=12;fontColor=default;" parent="1" source="-sAhlAxkaTWdB6cffGZN-26" target="-sAhlAxkaTWdB6cffGZN-32" edge="1">
          <mxGeometry relative="1" as="geometry" />
        </mxCell>
        <mxCell id="-sAhlAxkaTWdB6cffGZN-26" value="Модальное окно - заказ - 1" style="swimlane;strokeColor=default;strokeWidth=1;align=center;verticalAlign=middle;fontFamily=Helvetica;fontSize=12;fontColor=default;fillColor=default;gradientColor=none;html=1;" parent="1" vertex="1">
          <mxGeometry x="40" y="260" width="200" height="130" as="geometry" />
        </mxCell>
        <mxCell id="-sAhlAxkaTWdB6cffGZN-27" value="&lt;p style=&quot;margin:0px;margin-top:4px;text-align:center;&quot;&gt;&lt;b&gt;Форма&lt;/b&gt;&lt;/p&gt;&lt;hr&gt;&amp;nbsp;тип оплаты&lt;br&gt;&amp;nbsp;адрес" style="verticalAlign=top;align=left;overflow=fill;fontSize=12;fontFamily=Helvetica;html=1;whiteSpace=wrap;strokeColor=default;strokeWidth=1;fontColor=default;fillColor=default;gradientColor=none;" parent="-sAhlAxkaTWdB6cffGZN-26" vertex="1">
          <mxGeometry x="20" y="40" width="160" height="70" as="geometry" />
        </mxCell>
        <mxCell id="-sAhlAxkaTWdB6cffGZN-37" style="edgeStyle=orthogonalEdgeStyle;rounded=0;orthogonalLoop=1;jettySize=auto;html=1;exitX=1;exitY=0.5;exitDx=0;exitDy=0;entryX=0;entryY=0.5;entryDx=0;entryDy=0;fontFamily=Helvetica;fontSize=12;fontColor=default;" parent="1" source="-sAhlAxkaTWdB6cffGZN-32" target="-sAhlAxkaTWdB6cffGZN-35" edge="1">
          <mxGeometry relative="1" as="geometry" />
        </mxCell>
        <mxCell id="-sAhlAxkaTWdB6cffGZN-32" value="Модальное окно - заказ - 1" style="swimlane;strokeColor=default;strokeWidth=1;align=center;verticalAlign=middle;fontFamily=Helvetica;fontSize=12;fontColor=default;fillColor=default;gradientColor=none;html=1;" parent="1" vertex="1">
          <mxGeometry x="280" y="260" width="200" height="130" as="geometry" />
        </mxCell>
        <mxCell id="-sAhlAxkaTWdB6cffGZN-33" value="&lt;p style=&quot;margin:0px;margin-top:4px;text-align:center;&quot;&gt;&lt;/p&gt;&lt;b&gt;&lt;div style=&quot;text-align: center;&quot;&gt;&lt;/div&gt;&lt;div style=&quot;text-align: center;&quot;&gt;&lt;b style=&quot;background-color: initial;&quot;&gt;Форма&lt;/b&gt;&lt;/div&gt;&lt;div style=&quot;text-align: center;&quot;&gt;&lt;hr&gt;&lt;/div&gt;&lt;/b&gt;&amp;nbsp;электронный адрес&lt;br&gt;&amp;nbsp;номер телефона" style="verticalAlign=top;align=left;overflow=fill;fontSize=12;fontFamily=Helvetica;html=1;whiteSpace=wrap;strokeColor=default;strokeWidth=1;fontColor=default;fillColor=default;gradientColor=none;" parent="-sAhlAxkaTWdB6cffGZN-32" vertex="1">
          <mxGeometry x="20" y="40" width="160" height="70" as="geometry" />
        </mxCell>
        <mxCell id="-sAhlAxkaTWdB6cffGZN-35" value="Модальное окно - подтвер." style="swimlane;strokeColor=default;strokeWidth=1;align=center;verticalAlign=middle;fontFamily=Helvetica;fontSize=12;fontColor=default;fillColor=default;gradientColor=none;html=1;" parent="1" vertex="1">
          <mxGeometry x="520" y="260" width="200" height="130" as="geometry" />
        </mxCell>
        <mxCell id="2EmPIPDoMYIlZ_bwVWVt-1" value="Success!" style="text;align=center;fontStyle=1;verticalAlign=middle;spacingLeft=3;spacingRight=3;strokeColor=none;rotatable=0;points=[[0,0.5],[1,0.5]];portConstraint=eastwest;html=1;" parent="-sAhlAxkaTWdB6cffGZN-35" vertex="1">
          <mxGeometry x="60" y="62" width="80" height="26" as="geometry" />
        </mxCell>
        <mxCell id="4yjHVWg_Ny5ehc44ukCD-2" value="Продукт" style="swimlane;fontStyle=0;childLayout=stackLayout;horizontal=1;startSize=26;fillColor=none;horizontalStack=0;resizeParent=1;resizeParentMax=0;resizeLast=0;collapsible=1;marginBottom=0;html=1;strokeColor=default;strokeWidth=1;align=center;verticalAlign=middle;fontFamily=Helvetica;fontSize=12;fontColor=default;" parent="1" vertex="1">
          <mxGeometry x="40" y="520" width="160" height="160" as="geometry" />
        </mxCell>
        <mxCell id="4yjHVWg_Ny5ehc44ukCD-3" value="категория" style="text;strokeColor=none;fillColor=none;align=left;verticalAlign=top;spacingLeft=4;spacingRight=4;overflow=hidden;rotatable=0;points=[[0,0.5],[1,0.5]];portConstraint=eastwest;whiteSpace=wrap;html=1;fontSize=12;fontFamily=Helvetica;fontColor=default;" parent="4yjHVWg_Ny5ehc44ukCD-2" vertex="1">
          <mxGeometry y="26" width="160" height="26" as="geometry" />
        </mxCell>
        <mxCell id="4yjHVWg_Ny5ehc44ukCD-4" value="название" style="text;strokeColor=none;fillColor=none;align=left;verticalAlign=top;spacingLeft=4;spacingRight=4;overflow=hidden;rotatable=0;points=[[0,0.5],[1,0.5]];portConstraint=eastwest;whiteSpace=wrap;html=1;fontSize=12;fontFamily=Helvetica;fontColor=default;" parent="4yjHVWg_Ny5ehc44ukCD-2" vertex="1">
          <mxGeometry y="52" width="160" height="26" as="geometry" />
        </mxCell>
        <mxCell id="4yjHVWg_Ny5ehc44ukCD-5" value="картинка" style="text;strokeColor=none;fillColor=none;align=left;verticalAlign=top;spacingLeft=4;spacingRight=4;overflow=hidden;rotatable=0;points=[[0,0.5],[1,0.5]];portConstraint=eastwest;whiteSpace=wrap;html=1;fontSize=12;fontFamily=Helvetica;fontColor=default;" parent="4yjHVWg_Ny5ehc44ukCD-2" vertex="1">
          <mxGeometry y="78" width="160" height="26" as="geometry" />
        </mxCell>
        <mxCell id="4yjHVWg_Ny5ehc44ukCD-6" value="описание" style="text;strokeColor=none;fillColor=none;align=left;verticalAlign=middle;spacingLeft=4;spacingRight=4;overflow=hidden;points=[[0,0.5],[1,0.5]];portConstraint=eastwest;rotatable=0;whiteSpace=wrap;html=1;fontSize=12;fontFamily=Helvetica;fontColor=default;" parent="4yjHVWg_Ny5ehc44ukCD-2" vertex="1">
          <mxGeometry y="104" width="160" height="30" as="geometry" />
        </mxCell>
        <mxCell id="4yjHVWg_Ny5ehc44ukCD-7" value="цена" style="text;strokeColor=none;fillColor=none;align=left;verticalAlign=middle;spacingLeft=4;spacingRight=4;overflow=hidden;points=[[0,0.5],[1,0.5]];portConstraint=eastwest;rotatable=0;whiteSpace=wrap;html=1;fontSize=12;fontFamily=Helvetica;fontColor=default;" parent="4yjHVWg_Ny5ehc44ukCD-2" vertex="1">
          <mxGeometry y="134" width="160" height="26" as="geometry" />
        </mxCell>
        <mxCell id="fmakYvbi5K9Wu-rtLtHO-1" value="Форма" style="swimlane;fontStyle=0;childLayout=stackLayout;horizontal=1;startSize=26;fillColor=none;horizontalStack=0;resizeParent=1;resizeParentMax=0;resizeLast=0;collapsible=1;marginBottom=0;html=1;strokeColor=default;strokeWidth=1;align=center;verticalAlign=middle;fontFamily=Helvetica;fontSize=12;fontColor=default;" parent="1" vertex="1">
          <mxGeometry x="240" y="520" width="160" height="136" as="geometry" />
        </mxCell>
        <mxCell id="fmakYvbi5K9Wu-rtLtHO-2" value="тип оплаты" style="text;strokeColor=none;fillColor=none;align=left;verticalAlign=top;spacingLeft=4;spacingRight=4;overflow=hidden;rotatable=0;points=[[0,0.5],[1,0.5]];portConstraint=eastwest;whiteSpace=wrap;html=1;fontSize=12;fontFamily=Helvetica;fontColor=default;" parent="fmakYvbi5K9Wu-rtLtHO-1" vertex="1">
          <mxGeometry y="26" width="160" height="26" as="geometry" />
        </mxCell>
        <mxCell id="fmakYvbi5K9Wu-rtLtHO-3" value="адрес" style="text;strokeColor=none;fillColor=none;align=left;verticalAlign=top;spacingLeft=4;spacingRight=4;overflow=hidden;rotatable=0;points=[[0,0.5],[1,0.5]];portConstraint=eastwest;whiteSpace=wrap;html=1;fontSize=12;fontFamily=Helvetica;fontColor=default;" parent="fmakYvbi5K9Wu-rtLtHO-1" vertex="1">
          <mxGeometry y="52" width="160" height="28" as="geometry" />
        </mxCell>
        <mxCell id="fmakYvbi5K9Wu-rtLtHO-4" value="электронный адрес" style="text;strokeColor=none;fillColor=none;align=left;verticalAlign=top;spacingLeft=4;spacingRight=4;overflow=hidden;rotatable=0;points=[[0,0.5],[1,0.5]];portConstraint=eastwest;whiteSpace=wrap;html=1;fontSize=12;fontFamily=Helvetica;fontColor=default;" parent="fmakYvbi5K9Wu-rtLtHO-1" vertex="1">
          <mxGeometry y="80" width="160" height="28" as="geometry" />
        </mxCell>
        <mxCell id="fmakYvbi5K9Wu-rtLtHO-5" value="номер телефона" style="text;strokeColor=none;fillColor=none;align=left;verticalAlign=top;spacingLeft=4;spacingRight=4;overflow=hidden;rotatable=0;points=[[0,0.5],[1,0.5]];portConstraint=eastwest;whiteSpace=wrap;html=1;fontSize=12;fontFamily=Helvetica;fontColor=default;" parent="fmakYvbi5K9Wu-rtLtHO-1" vertex="1">
          <mxGeometry y="108" width="160" height="28" as="geometry" />
        </mxCell>
      </root>
    </mxGraphModel>
  </diagram>
  <diagram id="23iRSUPoRavnBvh4doch" name="Data interfaces">
    <mxGraphModel dx="934" dy="768" grid="1" gridSize="10" guides="1" tooltips="1" connect="1" arrows="1" fold="1" page="1" pageScale="1" pageWidth="827" pageHeight="1169" math="0" shadow="0">
      <root>
        <mxCell id="0" />
        <mxCell id="1" parent="0" />
        <mxCell id="AEPaM1duCkQZSXfGBPv_-2" value="&lt;p style=&quot;margin:0px;margin-top:4px;text-align:center;&quot;&gt;&lt;i&gt;&amp;lt;&amp;lt;Interface&amp;gt;&amp;gt;&lt;/i&gt;&lt;br&gt;&lt;b&gt;Product&lt;/b&gt;&lt;/p&gt;&lt;hr&gt;&lt;p style=&quot;margin:0px;margin-left:4px;&quot;&gt;_id: string&lt;/p&gt;&lt;p style=&quot;margin:0px;margin-left:4px;&quot;&gt;_title: string&lt;/p&gt;&lt;p style=&quot;margin:0px;margin-left:4px;&quot;&gt;_category: string&lt;/p&gt;&lt;p style=&quot;margin:0px;margin-left:4px;&quot;&gt;_image: string&lt;/p&gt;&lt;p style=&quot;margin:0px;margin-left:4px;&quot;&gt;_description: string&lt;/p&gt;&lt;p style=&quot;margin:0px;margin-left:4px;&quot;&gt;_price: number&lt;/p&gt;&lt;hr&gt;&lt;p style=&quot;margin:0px;margin-left:4px;&quot;&gt;+ getId(): string&lt;/p&gt;&lt;p style=&quot;margin:0px;margin-left:4px;&quot;&gt;+ getTitle(): string&lt;/p&gt;&lt;p style=&quot;margin:0px;margin-left:4px;&quot;&gt;+ getCategory(): string&lt;/p&gt;&lt;p style=&quot;margin:0px;margin-left:4px;&quot;&gt;+ getImage(): string&lt;/p&gt;&lt;p style=&quot;margin:0px;margin-left:4px;&quot;&gt;+ getDescription(): string&lt;/p&gt;&lt;p style=&quot;margin:0px;margin-left:4px;&quot;&gt;+ getPrice(): sting&lt;/p&gt;" style="verticalAlign=top;align=left;overflow=fill;fontSize=12;fontFamily=Helvetica;html=1;whiteSpace=wrap;strokeColor=default;strokeWidth=1;fontColor=default;fillColor=default;gradientColor=none;" parent="1" vertex="1">
          <mxGeometry x="20" y="20" width="160" height="280" as="geometry" />
        </mxCell>
        <mxCell id="AEPaM1duCkQZSXfGBPv_-10" value="&lt;p style=&quot;margin:0px;margin-top:4px;text-align:center;&quot;&gt;&lt;i&gt;&amp;lt;&amp;lt;Interface&amp;gt;&amp;gt;&lt;/i&gt;&lt;br&gt;&lt;b&gt;Basket&amp;lt;Product&amp;gt;&lt;/b&gt;&lt;/p&gt;&lt;hr size=&quot;1&quot;&gt;&lt;p style=&quot;margin:0px;margin-left:4px;&quot;&gt;&lt;/p&gt;&lt;p style=&quot;margin:0px;margin-left:4px;&quot;&gt;&lt;span style=&quot;background-color: initial;&quot;&gt;+ get(number): Type&lt;/span&gt;&lt;br&gt;&lt;/p&gt;&lt;p style=&quot;margin:0px;margin-left:4px;&quot;&gt;+ remove(number): bool&lt;/p&gt;&lt;p style=&quot;margin:0px;margin-left:4px;&quot;&gt;&lt;br&gt;&lt;/p&gt;" style="verticalAlign=top;align=left;overflow=fill;fontSize=12;fontFamily=Helvetica;html=1;whiteSpace=wrap;strokeColor=default;strokeWidth=1;fontColor=default;fillColor=default;gradientColor=none;" parent="1" vertex="1">
          <mxGeometry x="200" y="220" width="160" height="80" as="geometry" />
        </mxCell>
        <mxCell id="AEPaM1duCkQZSXfGBPv_-13" value="&lt;p style=&quot;margin:0px;margin-top:4px;text-align:center;&quot;&gt;&lt;i&gt;&amp;lt;&amp;lt;Interface&amp;gt;&amp;gt;&lt;/i&gt;&lt;br&gt;&lt;b&gt;Order&lt;/b&gt;&lt;/p&gt;&lt;hr size=&quot;1&quot;&gt;&lt;p style=&quot;margin:0px;margin-left:4px;&quot;&gt;&lt;/p&gt;&lt;p style=&quot;margin:0px;margin-left:4px;&quot;&gt;_id: string&lt;/p&gt;&lt;p style=&quot;margin:0px;margin-left:4px;&quot;&gt;_payment: string&lt;/p&gt;&lt;p style=&quot;margin:0px;margin-left:4px;&quot;&gt;_address: string&lt;/p&gt;&lt;p style=&quot;margin:0px;margin-left:4px;&quot;&gt;_email: string&lt;/p&gt;&lt;p style=&quot;margin:0px;margin-left:4px;&quot;&gt;_phone: string&lt;/p&gt;&lt;p style=&quot;margin:0px;margin-left:4px;&quot;&gt;_status: string&lt;/p&gt;&lt;p style=&quot;margin:0px;margin-left:4px;&quot;&gt;_total: number&lt;/p&gt;&lt;p style=&quot;margin:0px;margin-left:4px;&quot;&gt;_items: string[]&lt;/p&gt;&lt;hr&gt;&lt;p style=&quot;margin:0px;margin-left:4px;&quot;&gt;+ getId(): string&lt;/p&gt;&lt;p style=&quot;margin:0px;margin-left:4px;&quot;&gt;+ getPayment(): string&lt;br&gt;+ getAddress(): string&lt;/p&gt;&lt;p style=&quot;margin:0px;margin-left:4px;&quot;&gt;+ getEmail(): string&lt;/p&gt;&lt;p style=&quot;margin:0px;margin-left:4px;&quot;&gt;+ getPhone(): string&lt;/p&gt;&lt;p style=&quot;margin:0px;margin-left:4px;&quot;&gt;+ getStatus(): string&lt;/p&gt;&lt;p style=&quot;margin:0px;margin-left:4px;&quot;&gt;+ getTotal(): number&lt;/p&gt;" style="verticalAlign=top;align=left;overflow=fill;fontSize=12;fontFamily=Helvetica;html=1;whiteSpace=wrap;strokeColor=default;strokeWidth=1;fontColor=default;fillColor=default;gradientColor=none;" parent="1" vertex="1">
          <mxGeometry x="380" y="20" width="160" height="280" as="geometry" />
        </mxCell>
        <mxCell id="zdOq4nlUu5uEeNqIf_5a-1" value="&lt;p style=&quot;margin:0px;margin-top:4px;text-align:center;&quot;&gt;&lt;i&gt;&amp;lt;&amp;lt;Interface&amp;gt;&amp;gt;&lt;/i&gt;&lt;br&gt;&lt;b&gt;CollectionBase&amp;lt;Product&amp;gt;&lt;/b&gt;&lt;/p&gt;&lt;hr size=&quot;1&quot;&gt;&lt;p style=&quot;margin:0px;margin-left:4px;&quot;&gt;&lt;/p&gt;&lt;p style=&quot;margin:0px;margin-left:4px;&quot;&gt;_items:&amp;nbsp;&lt;span style=&quot;border-color: var(--border-color); text-align: center;&quot;&gt;Product&lt;/span&gt;[]&lt;/p&gt;&lt;hr&gt;&lt;p style=&quot;margin:0px;margin-left:4px;&quot;&gt;+ add(&lt;span style=&quot;border-color: var(--border-color); text-align: center;&quot;&gt;Product&lt;/span&gt;): number&lt;/p&gt;&lt;p style=&quot;margin:0px;margin-left:4px;&quot;&gt;+ getList():&amp;nbsp;&lt;span style=&quot;border-color: var(--border-color); text-align: center;&quot;&gt;Product&lt;/span&gt;[]&lt;/p&gt;&lt;p style=&quot;margin:0px;margin-left:4px;&quot;&gt;&lt;br&gt;&lt;/p&gt;" style="verticalAlign=top;align=left;overflow=fill;fontSize=12;fontFamily=Helvetica;html=1;whiteSpace=wrap;strokeColor=default;strokeWidth=1;fontColor=default;fillColor=default;gradientColor=none;" parent="1" vertex="1">
          <mxGeometry x="200" y="20" width="160" height="120" as="geometry" />
        </mxCell>
        <mxCell id="zdOq4nlUu5uEeNqIf_5a-2" value="" style="endArrow=block;endSize=16;endFill=0;html=1;rounded=0;exitX=0.5;exitY=0;exitDx=0;exitDy=0;entryX=0.5;entryY=1;entryDx=0;entryDy=0;" parent="1" source="AEPaM1duCkQZSXfGBPv_-10" target="zdOq4nlUu5uEeNqIf_5a-1" edge="1">
          <mxGeometry width="160" relative="1" as="geometry">
            <mxPoint x="130" y="120" as="sourcePoint" />
            <mxPoint x="290" y="120" as="targetPoint" />
          </mxGeometry>
        </mxCell>
        <mxCell id="pY-xQl5XzrNBfZ1mO9KD-1" value="&lt;p style=&quot;margin:0px;margin-top:4px;text-align:center;&quot;&gt;&lt;i&gt;&amp;lt;&amp;lt;Interface&amp;gt;&amp;gt;&lt;/i&gt;&lt;br&gt;&lt;b&gt;AppApi&lt;/b&gt;&lt;/p&gt;&lt;hr size=&quot;1&quot;&gt;&lt;p style=&quot;margin:0px;margin-left:4px;&quot;&gt;&lt;/p&gt;&lt;p style=&quot;margin:0px;margin-left:4px;&quot;&gt;+ getProducts(string): Product[]&lt;br&gt;+ sendOrder(Object): Promiss&amp;lt;Object&amp;gt;&lt;/p&gt;" style="verticalAlign=top;align=left;overflow=fill;fontSize=12;fontFamily=Helvetica;html=1;whiteSpace=wrap;" parent="1" vertex="1">
          <mxGeometry x="560" y="20" width="240" height="100" as="geometry" />
        </mxCell>
      </root>
    </mxGraphModel>
  </diagram>
  <diagram id="On6IZVtA3JF4s-dqkIJ6" name="Products view">
    <mxGraphModel dx="934" dy="768" grid="1" gridSize="10" guides="1" tooltips="1" connect="1" arrows="1" fold="1" page="1" pageScale="1" pageWidth="850" pageHeight="1100" math="0" shadow="0">
      <root>
        <mxCell id="0" />
        <mxCell id="1" parent="0" />
        <mxCell id="AcBCyChoSrdIjPofASSa-1" value="Product" style="swimlane;fontStyle=0;childLayout=stackLayout;horizontal=1;startSize=26;fillColor=none;horizontalStack=0;resizeParent=1;resizeParentMax=0;resizeLast=0;collapsible=1;marginBottom=0;html=1;" parent="1" vertex="1">
          <mxGeometry x="240" y="40" width="160" height="156" as="geometry" />
        </mxCell>
        <mxCell id="u_2uE7AgG5l6TXYWXF5y-5" value="Category" style="text;strokeColor=none;fillColor=none;align=left;verticalAlign=top;spacingLeft=4;spacingRight=4;overflow=hidden;rotatable=0;points=[[0,0.5],[1,0.5]];portConstraint=eastwest;whiteSpace=wrap;html=1;" parent="AcBCyChoSrdIjPofASSa-1" vertex="1">
          <mxGeometry y="26" width="160" height="26" as="geometry" />
        </mxCell>
        <mxCell id="AcBCyChoSrdIjPofASSa-2" value="Title" style="text;strokeColor=none;fillColor=none;align=left;verticalAlign=top;spacingLeft=4;spacingRight=4;overflow=hidden;rotatable=0;points=[[0,0.5],[1,0.5]];portConstraint=eastwest;whiteSpace=wrap;html=1;" parent="AcBCyChoSrdIjPofASSa-1" vertex="1">
          <mxGeometry y="52" width="160" height="26" as="geometry" />
        </mxCell>
        <mxCell id="AcBCyChoSrdIjPofASSa-3" value="Image" style="text;strokeColor=none;fillColor=none;align=left;verticalAlign=top;spacingLeft=4;spacingRight=4;overflow=hidden;rotatable=0;points=[[0,0.5],[1,0.5]];portConstraint=eastwest;whiteSpace=wrap;html=1;" parent="AcBCyChoSrdIjPofASSa-1" vertex="1">
          <mxGeometry y="78" width="160" height="26" as="geometry" />
        </mxCell>
        <mxCell id="AcBCyChoSrdIjPofASSa-4" value="Description" style="text;strokeColor=none;fillColor=none;align=left;verticalAlign=top;spacingLeft=4;spacingRight=4;overflow=hidden;rotatable=0;points=[[0,0.5],[1,0.5]];portConstraint=eastwest;whiteSpace=wrap;html=1;" parent="AcBCyChoSrdIjPofASSa-1" vertex="1">
          <mxGeometry y="104" width="160" height="26" as="geometry" />
        </mxCell>
        <mxCell id="AcBCyChoSrdIjPofASSa-5" value="Price" style="text;strokeColor=none;fillColor=none;align=left;verticalAlign=top;spacingLeft=4;spacingRight=4;overflow=hidden;rotatable=0;points=[[0,0.5],[1,0.5]];portConstraint=eastwest;whiteSpace=wrap;html=1;" parent="AcBCyChoSrdIjPofASSa-1" vertex="1">
          <mxGeometry y="130" width="160" height="26" as="geometry" />
        </mxCell>
        <mxCell id="u_2uE7AgG5l6TXYWXF5y-1" value="Home" style="swimlane;fontStyle=0;childLayout=stackLayout;horizontal=1;startSize=26;fillColor=none;horizontalStack=0;resizeParent=1;resizeParentMax=0;resizeLast=0;collapsible=1;marginBottom=0;html=1;" parent="1" vertex="1">
          <mxGeometry x="40" y="280" width="160" height="130" as="geometry" />
        </mxCell>
        <mxCell id="u_2uE7AgG5l6TXYWXF5y-6" value="Category" style="text;strokeColor=none;fillColor=none;align=left;verticalAlign=top;spacingLeft=4;spacingRight=4;overflow=hidden;rotatable=0;points=[[0,0.5],[1,0.5]];portConstraint=eastwest;whiteSpace=wrap;html=1;" parent="u_2uE7AgG5l6TXYWXF5y-1" vertex="1">
          <mxGeometry y="26" width="160" height="26" as="geometry" />
        </mxCell>
        <mxCell id="u_2uE7AgG5l6TXYWXF5y-2" value="Title" style="text;strokeColor=none;fillColor=none;align=left;verticalAlign=top;spacingLeft=4;spacingRight=4;overflow=hidden;rotatable=0;points=[[0,0.5],[1,0.5]];portConstraint=eastwest;whiteSpace=wrap;html=1;" parent="u_2uE7AgG5l6TXYWXF5y-1" vertex="1">
          <mxGeometry y="52" width="160" height="26" as="geometry" />
        </mxCell>
        <mxCell id="u_2uE7AgG5l6TXYWXF5y-3" value="Image" style="text;strokeColor=none;fillColor=none;align=left;verticalAlign=top;spacingLeft=4;spacingRight=4;overflow=hidden;rotatable=0;points=[[0,0.5],[1,0.5]];portConstraint=eastwest;whiteSpace=wrap;html=1;" parent="u_2uE7AgG5l6TXYWXF5y-1" vertex="1">
          <mxGeometry y="78" width="160" height="26" as="geometry" />
        </mxCell>
        <mxCell id="u_2uE7AgG5l6TXYWXF5y-4" value="Price" style="text;strokeColor=none;fillColor=none;align=left;verticalAlign=top;spacingLeft=4;spacingRight=4;overflow=hidden;rotatable=0;points=[[0,0.5],[1,0.5]];portConstraint=eastwest;whiteSpace=wrap;html=1;" parent="u_2uE7AgG5l6TXYWXF5y-1" vertex="1">
          <mxGeometry y="104" width="160" height="26" as="geometry" />
        </mxCell>
        <mxCell id="sgHwfWcSW-gmMsj6QEDc-1" value="Popup" style="swimlane;fontStyle=0;childLayout=stackLayout;horizontal=1;startSize=26;fillColor=none;horizontalStack=0;resizeParent=1;resizeParentMax=0;resizeLast=0;collapsible=1;marginBottom=0;html=1;" parent="1" vertex="1">
          <mxGeometry x="240" y="280" width="160" height="158" as="geometry" />
        </mxCell>
        <mxCell id="sgHwfWcSW-gmMsj6QEDc-2" value="Category" style="text;strokeColor=none;fillColor=none;align=left;verticalAlign=top;spacingLeft=4;spacingRight=4;overflow=hidden;rotatable=0;points=[[0,0.5],[1,0.5]];portConstraint=eastwest;whiteSpace=wrap;html=1;" parent="sgHwfWcSW-gmMsj6QEDc-1" vertex="1">
          <mxGeometry y="26" width="160" height="26" as="geometry" />
        </mxCell>
        <mxCell id="sgHwfWcSW-gmMsj6QEDc-3" value="Title" style="text;strokeColor=none;fillColor=none;align=left;verticalAlign=top;spacingLeft=4;spacingRight=4;overflow=hidden;rotatable=0;points=[[0,0.5],[1,0.5]];portConstraint=eastwest;whiteSpace=wrap;html=1;" parent="sgHwfWcSW-gmMsj6QEDc-1" vertex="1">
          <mxGeometry y="52" width="160" height="28" as="geometry" />
        </mxCell>
        <mxCell id="sgHwfWcSW-gmMsj6QEDc-4" value="Image" style="text;strokeColor=none;fillColor=none;align=left;verticalAlign=top;spacingLeft=4;spacingRight=4;overflow=hidden;rotatable=0;points=[[0,0.5],[1,0.5]];portConstraint=eastwest;whiteSpace=wrap;html=1;" parent="sgHwfWcSW-gmMsj6QEDc-1" vertex="1">
          <mxGeometry y="80" width="160" height="26" as="geometry" />
        </mxCell>
        <mxCell id="sgHwfWcSW-gmMsj6QEDc-5" value="Description" style="text;strokeColor=none;fillColor=none;align=left;verticalAlign=top;spacingLeft=4;spacingRight=4;overflow=hidden;rotatable=0;points=[[0,0.5],[1,0.5]];portConstraint=eastwest;whiteSpace=wrap;html=1;" parent="sgHwfWcSW-gmMsj6QEDc-1" vertex="1">
          <mxGeometry y="106" width="160" height="26" as="geometry" />
        </mxCell>
        <mxCell id="sgHwfWcSW-gmMsj6QEDc-6" value="Price" style="text;strokeColor=none;fillColor=none;align=left;verticalAlign=top;spacingLeft=4;spacingRight=4;overflow=hidden;rotatable=0;points=[[0,0.5],[1,0.5]];portConstraint=eastwest;whiteSpace=wrap;html=1;" parent="sgHwfWcSW-gmMsj6QEDc-1" vertex="1">
          <mxGeometry y="132" width="160" height="26" as="geometry" />
        </mxCell>
        <mxCell id="sgHwfWcSW-gmMsj6QEDc-7" value="Cart" style="swimlane;fontStyle=0;childLayout=stackLayout;horizontal=1;startSize=26;fillColor=none;horizontalStack=0;resizeParent=1;resizeParentMax=0;resizeLast=0;collapsible=1;marginBottom=0;html=1;" parent="1" vertex="1">
          <mxGeometry x="440" y="280" width="160" height="80" as="geometry" />
        </mxCell>
        <mxCell id="sgHwfWcSW-gmMsj6QEDc-8" value="Title" style="text;strokeColor=none;fillColor=none;align=left;verticalAlign=top;spacingLeft=4;spacingRight=4;overflow=hidden;rotatable=0;points=[[0,0.5],[1,0.5]];portConstraint=eastwest;whiteSpace=wrap;html=1;" parent="sgHwfWcSW-gmMsj6QEDc-7" vertex="1">
          <mxGeometry y="26" width="160" height="26" as="geometry" />
        </mxCell>
        <mxCell id="sgHwfWcSW-gmMsj6QEDc-9" value="Price" style="text;strokeColor=none;fillColor=none;align=left;verticalAlign=top;spacingLeft=4;spacingRight=4;overflow=hidden;rotatable=0;points=[[0,0.5],[1,0.5]];portConstraint=eastwest;whiteSpace=wrap;html=1;" parent="sgHwfWcSW-gmMsj6QEDc-7" vertex="1">
          <mxGeometry y="52" width="160" height="28" as="geometry" />
        </mxCell>
        <mxCell id="sgHwfWcSW-gmMsj6QEDc-27" value="" style="edgeStyle=orthogonalEdgeStyle;rounded=0;orthogonalLoop=1;jettySize=auto;html=1;entryX=0.5;entryY=0;entryDx=0;entryDy=0;exitX=1;exitY=0.5;exitDx=0;exitDy=0;exitPerimeter=0;" parent="1" source="sgHwfWcSW-gmMsj6QEDc-23" target="sgHwfWcSW-gmMsj6QEDc-7" edge="1">
          <mxGeometry relative="1" as="geometry">
            <mxPoint x="410" y="238" as="targetPoint" />
            <Array as="points">
              <mxPoint x="520" y="240" />
            </Array>
          </mxGeometry>
        </mxCell>
        <mxCell id="sgHwfWcSW-gmMsj6QEDc-29" value="" style="edgeStyle=orthogonalEdgeStyle;rounded=0;orthogonalLoop=1;jettySize=auto;html=1;exitX=0.5;exitY=0.5;exitDx=0;exitDy=0;exitPerimeter=0;" parent="1" source="sgHwfWcSW-gmMsj6QEDc-23" target="u_2uE7AgG5l6TXYWXF5y-1" edge="1">
          <mxGeometry relative="1" as="geometry">
            <mxPoint x="220" y="238" as="targetPoint" />
            <Array as="points">
              <mxPoint x="320" y="240" />
              <mxPoint x="120" y="240" />
            </Array>
          </mxGeometry>
        </mxCell>
        <mxCell id="sgHwfWcSW-gmMsj6QEDc-30" value="" style="edgeStyle=orthogonalEdgeStyle;rounded=0;orthogonalLoop=1;jettySize=auto;html=1;exitX=0.5;exitY=0.5;exitDx=0;exitDy=0;exitPerimeter=0;" parent="1" source="sgHwfWcSW-gmMsj6QEDc-23" target="sgHwfWcSW-gmMsj6QEDc-1" edge="1">
          <mxGeometry relative="1" as="geometry">
            <Array as="points" />
          </mxGeometry>
        </mxCell>
        <mxCell id="sgHwfWcSW-gmMsj6QEDc-23" value="" style="shape=crossbar;whiteSpace=wrap;html=1;rounded=1;direction=south;" parent="1" vertex="1">
          <mxGeometry x="310" y="196" width="20" height="44" as="geometry" />
        </mxCell>
      </root>
    </mxGraphModel>
  </diagram>
  <diagram id="5epeoyg7Lv8mf_ZGZY8h" name="Relationship">
    <mxGraphModel dx="934" dy="768" grid="1" gridSize="10" guides="1" tooltips="1" connect="1" arrows="1" fold="1" page="1" pageScale="1" pageWidth="850" pageHeight="1100" math="0" shadow="0">
      <root>
        <mxCell id="0" />
        <mxCell id="1" parent="0" />
        <mxCell id="hCKPYrnIUq6MbqEk1yJ6-4" value="Модели" style="shape=umlLifeline;perimeter=lifelinePerimeter;whiteSpace=wrap;html=1;container=1;dropTarget=0;collapsible=0;recursiveResize=0;outlineConnect=0;portConstraint=eastwest;newEdgeStyle={&quot;curved&quot;:0,&quot;rounded&quot;:0};" parent="1" vertex="1">
          <mxGeometry x="563" y="40" width="100" height="540" as="geometry" />
        </mxCell>
        <mxCell id="hCKPYrnIUq6MbqEk1yJ6-12" value="" style="html=1;points=[[0,0,0,0,5],[0,1,0,0,-5],[1,0,0,0,5],[1,1,0,0,-5]];perimeter=orthogonalPerimeter;outlineConnect=0;targetShapes=umlLifeline;portConstraint=eastwest;newEdgeStyle={&quot;curved&quot;:0,&quot;rounded&quot;:0};" parent="hCKPYrnIUq6MbqEk1yJ6-4" vertex="1">
          <mxGeometry x="45" y="208" width="10" height="80" as="geometry" />
        </mxCell>
        <mxCell id="hCKPYrnIUq6MbqEk1yJ6-17" value="" style="html=1;points=[[0,0,0,0,5],[0,1,0,0,-5],[1,0,0,0,5],[1,1,0,0,-5]];perimeter=orthogonalPerimeter;outlineConnect=0;targetShapes=umlLifeline;portConstraint=eastwest;newEdgeStyle={&quot;curved&quot;:0,&quot;rounded&quot;:0};" parent="hCKPYrnIUq6MbqEk1yJ6-4" vertex="1">
          <mxGeometry x="45" y="50" width="10" height="80" as="geometry" />
        </mxCell>
        <mxCell id="hCKPYrnIUq6MbqEk1yJ6-20" value="" style="html=1;points=[[0,0,0,0,5],[0,1,0,0,-5],[1,0,0,0,5],[1,1,0,0,-5]];perimeter=orthogonalPerimeter;outlineConnect=0;targetShapes=umlLifeline;portConstraint=eastwest;newEdgeStyle={&quot;curved&quot;:0,&quot;rounded&quot;:0};" parent="hCKPYrnIUq6MbqEk1yJ6-4" vertex="1">
          <mxGeometry x="45" y="380" width="10" height="90" as="geometry" />
        </mxCell>
        <mxCell id="hCKPYrnIUq6MbqEk1yJ6-5" value="Презентер" style="shape=umlLifeline;perimeter=lifelinePerimeter;whiteSpace=wrap;html=1;container=1;dropTarget=0;collapsible=0;recursiveResize=0;outlineConnect=0;portConstraint=eastwest;newEdgeStyle={&quot;curved&quot;:0,&quot;rounded&quot;:0};" parent="1" vertex="1">
          <mxGeometry x="363" y="40" width="100" height="540" as="geometry" />
        </mxCell>
        <mxCell id="hCKPYrnIUq6MbqEk1yJ6-8" value="" style="html=1;points=[[0,0,0,0,5],[0,1,0,0,-5],[1,0,0,0,5],[1,1,0,0,-5]];perimeter=orthogonalPerimeter;outlineConnect=0;targetShapes=umlLifeline;portConstraint=eastwest;newEdgeStyle={&quot;curved&quot;:0,&quot;rounded&quot;:0};" parent="hCKPYrnIUq6MbqEk1yJ6-5" vertex="1">
          <mxGeometry x="45" y="60" width="10" height="460" as="geometry" />
        </mxCell>
        <mxCell id="hCKPYrnIUq6MbqEk1yJ6-6" value="отображение" style="shape=umlLifeline;perimeter=lifelinePerimeter;whiteSpace=wrap;html=1;container=1;dropTarget=0;collapsible=0;recursiveResize=0;outlineConnect=0;portConstraint=eastwest;newEdgeStyle={&quot;curved&quot;:0,&quot;rounded&quot;:0};" parent="1" vertex="1">
          <mxGeometry x="163" y="40" width="100" height="540" as="geometry" />
        </mxCell>
        <mxCell id="hCKPYrnIUq6MbqEk1yJ6-10" value="" style="html=1;points=[[0,0,0,0,5],[0,1,0,0,-5],[1,0,0,0,5],[1,1,0,0,-5]];perimeter=orthogonalPerimeter;outlineConnect=0;targetShapes=umlLifeline;portConstraint=eastwest;newEdgeStyle={&quot;curved&quot;:0,&quot;rounded&quot;:0};" parent="hCKPYrnIUq6MbqEk1yJ6-6" vertex="1">
          <mxGeometry x="45" y="158" width="10" height="60" as="geometry" />
        </mxCell>
        <mxCell id="hCKPYrnIUq6MbqEk1yJ6-15" value="" style="html=1;points=[[0,0,0,0,5],[0,1,0,0,-5],[1,0,0,0,5],[1,1,0,0,-5]];perimeter=orthogonalPerimeter;outlineConnect=0;targetShapes=umlLifeline;portConstraint=eastwest;newEdgeStyle={&quot;curved&quot;:0,&quot;rounded&quot;:0};" parent="hCKPYrnIUq6MbqEk1yJ6-6" vertex="1">
          <mxGeometry x="45" y="238" width="10" height="80" as="geometry" />
        </mxCell>
        <mxCell id="hCKPYrnIUq6MbqEk1yJ6-24" value="" style="html=1;points=[[0,0,0,0,5],[0,1,0,0,-5],[1,0,0,0,5],[1,1,0,0,-5]];perimeter=orthogonalPerimeter;outlineConnect=0;targetShapes=umlLifeline;portConstraint=eastwest;newEdgeStyle={&quot;curved&quot;:0,&quot;rounded&quot;:0};" parent="hCKPYrnIUq6MbqEk1yJ6-6" vertex="1">
          <mxGeometry x="45" y="70" width="10" height="60" as="geometry" />
        </mxCell>
        <mxCell id="hCKPYrnIUq6MbqEk1yJ6-26" value="" style="html=1;points=[[0,0,0,0,5],[0,1,0,0,-5],[1,0,0,0,5],[1,1,0,0,-5]];perimeter=orthogonalPerimeter;outlineConnect=0;targetShapes=umlLifeline;portConstraint=eastwest;newEdgeStyle={&quot;curved&quot;:0,&quot;rounded&quot;:0};" parent="hCKPYrnIUq6MbqEk1yJ6-6" vertex="1">
          <mxGeometry x="45" y="340" width="10" height="80" as="geometry" />
        </mxCell>
        <mxCell id="hCKPYrnIUq6MbqEk1yJ6-31" value="" style="html=1;points=[[0,0,0,0,5],[0,1,0,0,-5],[1,0,0,0,5],[1,1,0,0,-5]];perimeter=orthogonalPerimeter;outlineConnect=0;targetShapes=umlLifeline;portConstraint=eastwest;newEdgeStyle={&quot;curved&quot;:0,&quot;rounded&quot;:0};" parent="hCKPYrnIUq6MbqEk1yJ6-6" vertex="1">
          <mxGeometry x="45" y="430" width="10" height="80" as="geometry" />
        </mxCell>
        <mxCell id="hCKPYrnIUq6MbqEk1yJ6-7" value="Выбрали продукт" style="html=1;verticalAlign=bottom;endArrow=block;curved=0;rounded=0;" parent="1" edge="1">
          <mxGeometry width="80" relative="1" as="geometry">
            <mxPoint x="218" y="158" as="sourcePoint" />
            <mxPoint x="408" y="158" as="targetPoint" />
          </mxGeometry>
        </mxCell>
        <mxCell id="hCKPYrnIUq6MbqEk1yJ6-9" value="показать модульное окно" style="html=1;verticalAlign=bottom;endArrow=block;curved=0;rounded=0;" parent="1" source="hCKPYrnIUq6MbqEk1yJ6-8" target="hCKPYrnIUq6MbqEk1yJ6-10" edge="1">
          <mxGeometry width="80" relative="1" as="geometry">
            <mxPoint x="503" y="448" as="sourcePoint" />
            <mxPoint x="253" y="218" as="targetPoint" />
            <Array as="points">
              <mxPoint x="303" y="218" />
            </Array>
          </mxGeometry>
        </mxCell>
        <mxCell id="hCKPYrnIUq6MbqEk1yJ6-11" value="добавить в корзину" style="html=1;verticalAlign=bottom;endArrow=block;curved=0;rounded=0;entryX=-0.067;entryY=0.45;entryDx=0;entryDy=0;entryPerimeter=0;" parent="1" edge="1">
          <mxGeometry width="80" relative="1" as="geometry">
            <mxPoint x="218" y="247" as="sourcePoint" />
            <mxPoint x="407.3299999999999" y="247" as="targetPoint" />
          </mxGeometry>
        </mxCell>
        <mxCell id="hCKPYrnIUq6MbqEk1yJ6-13" value="внести изменения в корзину" style="html=1;verticalAlign=bottom;endArrow=block;curved=0;rounded=0;" parent="1" edge="1">
          <mxGeometry width="80" relative="1" as="geometry">
            <mxPoint x="418" y="260" as="sourcePoint" />
            <mxPoint x="608" y="260" as="targetPoint" />
          </mxGeometry>
        </mxCell>
        <mxCell id="hCKPYrnIUq6MbqEk1yJ6-14" value="получить изменения в корзине" style="html=1;verticalAlign=bottom;endArrow=block;curved=0;rounded=0;" parent="1" edge="1">
          <mxGeometry width="80" relative="1" as="geometry">
            <mxPoint x="608" y="284" as="sourcePoint" />
            <mxPoint x="418" y="284" as="targetPoint" />
          </mxGeometry>
        </mxCell>
        <mxCell id="hCKPYrnIUq6MbqEk1yJ6-16" value="отобразить изменения в корзине" style="html=1;verticalAlign=bottom;endArrow=block;curved=0;rounded=0;" parent="1" edge="1">
          <mxGeometry width="80" relative="1" as="geometry">
            <mxPoint x="408" y="300" as="sourcePoint" />
            <mxPoint x="218" y="300" as="targetPoint" />
          </mxGeometry>
        </mxCell>
        <mxCell id="hCKPYrnIUq6MbqEk1yJ6-18" value="продукты" style="text;strokeColor=none;fillColor=none;align=left;verticalAlign=top;spacingLeft=4;spacingRight=4;overflow=hidden;rotatable=0;points=[[0,0.5],[1,0.5]];portConstraint=eastwest;whiteSpace=wrap;html=1;flipV=1;flipH=1;" parent="1" vertex="1">
          <mxGeometry x="628" y="120" width="90" height="26" as="geometry" />
        </mxCell>
        <mxCell id="hCKPYrnIUq6MbqEk1yJ6-19" value="корзина" style="text;strokeColor=none;fillColor=none;align=left;verticalAlign=top;spacingLeft=4;spacingRight=4;overflow=hidden;rotatable=0;points=[[0,0.5],[1,0.5]];portConstraint=eastwest;whiteSpace=wrap;html=1;" parent="1" vertex="1">
          <mxGeometry x="628" y="271" width="100" height="26" as="geometry" />
        </mxCell>
        <mxCell id="hCKPYrnIUq6MbqEk1yJ6-21" value="ордер" style="text;strokeColor=none;fillColor=none;align=left;verticalAlign=top;spacingLeft=4;spacingRight=4;overflow=hidden;rotatable=0;points=[[0,0.5],[1,0.5]];portConstraint=eastwest;whiteSpace=wrap;html=1;" parent="1" vertex="1">
          <mxGeometry x="623" y="450" width="100" height="26" as="geometry" />
        </mxCell>
        <mxCell id="hCKPYrnIUq6MbqEk1yJ6-22" value="получили продукты" style="html=1;verticalAlign=bottom;endArrow=block;curved=0;rounded=0;" parent="1" edge="1">
          <mxGeometry width="80" relative="1" as="geometry">
            <mxPoint x="608" y="121" as="sourcePoint" />
            <mxPoint x="418" y="121" as="targetPoint" />
          </mxGeometry>
        </mxCell>
        <mxCell id="hCKPYrnIUq6MbqEk1yJ6-23" value="отобразить продукты" style="html=1;verticalAlign=bottom;endArrow=block;curved=0;rounded=0;" parent="1" edge="1">
          <mxGeometry width="80" relative="1" as="geometry">
            <mxPoint x="408" y="131" as="sourcePoint" />
            <mxPoint x="218" y="131" as="targetPoint" />
          </mxGeometry>
        </mxCell>
        <mxCell id="hCKPYrnIUq6MbqEk1yJ6-25" value="оформить ордер" style="html=1;verticalAlign=bottom;endArrow=block;curved=0;rounded=0;" parent="1" edge="1">
          <mxGeometry width="80" relative="1" as="geometry">
            <mxPoint x="218" y="332" as="sourcePoint" />
            <mxPoint x="408" y="332" as="targetPoint" />
          </mxGeometry>
        </mxCell>
        <mxCell id="hCKPYrnIUq6MbqEk1yJ6-27" value="отобразить форму" style="html=1;verticalAlign=bottom;endArrow=block;curved=0;rounded=0;" parent="1" edge="1">
          <mxGeometry width="80" relative="1" as="geometry">
            <mxPoint x="408" y="393" as="sourcePoint" />
            <mxPoint x="218" y="393" as="targetPoint" />
            <mxPoint as="offset" />
          </mxGeometry>
        </mxCell>
        <mxCell id="hCKPYrnIUq6MbqEk1yJ6-28" value="отправить форму" style="html=1;verticalAlign=bottom;endArrow=block;curved=0;rounded=0;" parent="1" edge="1">
          <mxGeometry width="80" relative="1" as="geometry">
            <mxPoint x="218" y="434" as="sourcePoint" />
            <mxPoint x="408" y="434" as="targetPoint" />
          </mxGeometry>
        </mxCell>
        <mxCell id="hCKPYrnIUq6MbqEk1yJ6-29" value="передать данные ордеру" style="html=1;verticalAlign=bottom;endArrow=block;curved=0;rounded=0;" parent="1" edge="1">
          <mxGeometry width="80" relative="1" as="geometry">
            <mxPoint x="418" y="447" as="sourcePoint" />
            <mxPoint x="608" y="447" as="targetPoint" />
          </mxGeometry>
        </mxCell>
        <mxCell id="hCKPYrnIUq6MbqEk1yJ6-30" value="передать результат ордера" style="html=1;verticalAlign=bottom;endArrow=block;curved=0;rounded=0;" parent="1" edge="1">
          <mxGeometry width="80" relative="1" as="geometry">
            <mxPoint x="608" y="491" as="sourcePoint" />
            <mxPoint x="418" y="491" as="targetPoint" />
          </mxGeometry>
        </mxCell>
        <mxCell id="hCKPYrnIUq6MbqEk1yJ6-32" value="показать результат покупки" style="html=1;verticalAlign=bottom;endArrow=block;curved=0;rounded=0;" parent="1" edge="1">
          <mxGeometry width="80" relative="1" as="geometry">
            <mxPoint x="408" y="512" as="sourcePoint" />
            <mxPoint x="218" y="512" as="targetPoint" />
          </mxGeometry>
        </mxCell>
        <mxCell id="hCKPYrnIUq6MbqEk1yJ6-33" value="страница" style="text;strokeColor=none;fillColor=none;align=right;verticalAlign=top;spacingLeft=4;spacingRight=4;overflow=hidden;rotatable=0;points=[[0,0.5],[1,0.5]];portConstraint=eastwest;whiteSpace=wrap;html=1;" parent="1" vertex="1">
          <mxGeometry x="132" y="130" width="68" height="26" as="geometry" />
        </mxCell>
        <mxCell id="hCKPYrnIUq6MbqEk1yJ6-34" value="детали" style="text;strokeColor=none;fillColor=none;align=right;verticalAlign=top;spacingLeft=4;spacingRight=4;overflow=hidden;rotatable=0;points=[[0,0.5],[1,0.5]];portConstraint=eastwest;whiteSpace=wrap;html=1;" parent="1" vertex="1">
          <mxGeometry x="140" y="220" width="60" height="26" as="geometry" />
        </mxCell>
        <mxCell id="hCKPYrnIUq6MbqEk1yJ6-35" value="корзина" style="text;strokeColor=none;fillColor=none;align=right;verticalAlign=top;spacingLeft=4;spacingRight=4;overflow=hidden;rotatable=0;points=[[0,0.5],[1,0.5]];portConstraint=eastwest;whiteSpace=wrap;html=1;" parent="1" vertex="1">
          <mxGeometry x="138" y="297" width="60" height="26" as="geometry" />
        </mxCell>
        <mxCell id="hCKPYrnIUq6MbqEk1yJ6-36" value="Форма ордера" style="text;strokeColor=none;fillColor=none;align=right;verticalAlign=top;spacingLeft=4;spacingRight=4;overflow=hidden;rotatable=0;points=[[0,0.5],[1,0.5]];portConstraint=eastwest;whiteSpace=wrap;html=1;" parent="1" vertex="1">
          <mxGeometry x="138" y="390" width="60" height="40" as="geometry" />
        </mxCell>
        <mxCell id="hCKPYrnIUq6MbqEk1yJ6-37" value="Окно подтверждения" style="text;strokeColor=none;fillColor=none;align=right;verticalAlign=top;spacingLeft=4;spacingRight=4;overflow=hidden;rotatable=0;points=[[0,0.5],[1,0.5]];portConstraint=eastwest;whiteSpace=wrap;html=1;" parent="1" vertex="1">
          <mxGeometry x="100" y="490" width="98" height="40" as="geometry" />
        </mxCell>
      </root>
    </mxGraphModel>
  </diagram>
  <diagram id="aanGZdxlAhjueCCQRALi" name="MVP">
    <mxGraphModel dx="934" dy="768" grid="1" gridSize="10" guides="1" tooltips="1" connect="1" arrows="1" fold="1" page="1" pageScale="1" pageWidth="850" pageHeight="1100" math="0" shadow="0">
      <root>
        <mxCell id="0" />
        <mxCell id="1" parent="0" />
        <mxCell id="YIulQMEfx4gcLl0Hj4b0-1" value="Модели" style="shape=umlLifeline;perimeter=lifelinePerimeter;whiteSpace=wrap;html=1;container=1;dropTarget=0;collapsible=0;recursiveResize=0;outlineConnect=0;portConstraint=eastwest;newEdgeStyle={&quot;curved&quot;:0,&quot;rounded&quot;:0};" vertex="1" parent="1">
          <mxGeometry x="563" y="40" width="100" height="540" as="geometry" />
        </mxCell>
        <mxCell id="YIulQMEfx4gcLl0Hj4b0-2" value="" style="html=1;points=[[0,0,0,0,5],[0,1,0,0,-5],[1,0,0,0,5],[1,1,0,0,-5]];perimeter=orthogonalPerimeter;outlineConnect=0;targetShapes=umlLifeline;portConstraint=eastwest;newEdgeStyle={&quot;curved&quot;:0,&quot;rounded&quot;:0};" vertex="1" parent="YIulQMEfx4gcLl0Hj4b0-1">
          <mxGeometry x="45" y="208" width="10" height="80" as="geometry" />
        </mxCell>
        <mxCell id="YIulQMEfx4gcLl0Hj4b0-3" value="" style="html=1;points=[[0,0,0,0,5],[0,1,0,0,-5],[1,0,0,0,5],[1,1,0,0,-5]];perimeter=orthogonalPerimeter;outlineConnect=0;targetShapes=umlLifeline;portConstraint=eastwest;newEdgeStyle={&quot;curved&quot;:0,&quot;rounded&quot;:0};" vertex="1" parent="YIulQMEfx4gcLl0Hj4b0-1">
          <mxGeometry x="45" y="50" width="10" height="80" as="geometry" />
        </mxCell>
        <mxCell id="YIulQMEfx4gcLl0Hj4b0-4" value="" style="html=1;points=[[0,0,0,0,5],[0,1,0,0,-5],[1,0,0,0,5],[1,1,0,0,-5]];perimeter=orthogonalPerimeter;outlineConnect=0;targetShapes=umlLifeline;portConstraint=eastwest;newEdgeStyle={&quot;curved&quot;:0,&quot;rounded&quot;:0};" vertex="1" parent="YIulQMEfx4gcLl0Hj4b0-1">
          <mxGeometry x="45" y="380" width="10" height="90" as="geometry" />
        </mxCell>
        <mxCell id="YIulQMEfx4gcLl0Hj4b0-5" value="Презентер" style="shape=umlLifeline;perimeter=lifelinePerimeter;whiteSpace=wrap;html=1;container=1;dropTarget=0;collapsible=0;recursiveResize=0;outlineConnect=0;portConstraint=eastwest;newEdgeStyle={&quot;curved&quot;:0,&quot;rounded&quot;:0};" vertex="1" parent="1">
          <mxGeometry x="363" y="40" width="100" height="540" as="geometry" />
        </mxCell>
        <mxCell id="YIulQMEfx4gcLl0Hj4b0-6" value="" style="html=1;points=[[0,0,0,0,5],[0,1,0,0,-5],[1,0,0,0,5],[1,1,0,0,-5]];perimeter=orthogonalPerimeter;outlineConnect=0;targetShapes=umlLifeline;portConstraint=eastwest;newEdgeStyle={&quot;curved&quot;:0,&quot;rounded&quot;:0};" vertex="1" parent="YIulQMEfx4gcLl0Hj4b0-5">
          <mxGeometry x="45" y="60" width="10" height="460" as="geometry" />
        </mxCell>
        <mxCell id="YIulQMEfx4gcLl0Hj4b0-7" value="отображение" style="shape=umlLifeline;perimeter=lifelinePerimeter;whiteSpace=wrap;html=1;container=1;dropTarget=0;collapsible=0;recursiveResize=0;outlineConnect=0;portConstraint=eastwest;newEdgeStyle={&quot;curved&quot;:0,&quot;rounded&quot;:0};" vertex="1" parent="1">
          <mxGeometry x="163" y="40" width="100" height="540" as="geometry" />
        </mxCell>
        <mxCell id="YIulQMEfx4gcLl0Hj4b0-8" value="" style="html=1;points=[[0,0,0,0,5],[0,1,0,0,-5],[1,0,0,0,5],[1,1,0,0,-5]];perimeter=orthogonalPerimeter;outlineConnect=0;targetShapes=umlLifeline;portConstraint=eastwest;newEdgeStyle={&quot;curved&quot;:0,&quot;rounded&quot;:0};" vertex="1" parent="YIulQMEfx4gcLl0Hj4b0-7">
          <mxGeometry x="45" y="158" width="10" height="60" as="geometry" />
        </mxCell>
        <mxCell id="YIulQMEfx4gcLl0Hj4b0-9" value="" style="html=1;points=[[0,0,0,0,5],[0,1,0,0,-5],[1,0,0,0,5],[1,1,0,0,-5]];perimeter=orthogonalPerimeter;outlineConnect=0;targetShapes=umlLifeline;portConstraint=eastwest;newEdgeStyle={&quot;curved&quot;:0,&quot;rounded&quot;:0};" vertex="1" parent="YIulQMEfx4gcLl0Hj4b0-7">
          <mxGeometry x="45" y="238" width="10" height="80" as="geometry" />
        </mxCell>
        <mxCell id="YIulQMEfx4gcLl0Hj4b0-10" value="" style="html=1;points=[[0,0,0,0,5],[0,1,0,0,-5],[1,0,0,0,5],[1,1,0,0,-5]];perimeter=orthogonalPerimeter;outlineConnect=0;targetShapes=umlLifeline;portConstraint=eastwest;newEdgeStyle={&quot;curved&quot;:0,&quot;rounded&quot;:0};" vertex="1" parent="YIulQMEfx4gcLl0Hj4b0-7">
          <mxGeometry x="45" y="70" width="10" height="60" as="geometry" />
        </mxCell>
        <mxCell id="YIulQMEfx4gcLl0Hj4b0-11" value="" style="html=1;points=[[0,0,0,0,5],[0,1,0,0,-5],[1,0,0,0,5],[1,1,0,0,-5]];perimeter=orthogonalPerimeter;outlineConnect=0;targetShapes=umlLifeline;portConstraint=eastwest;newEdgeStyle={&quot;curved&quot;:0,&quot;rounded&quot;:0};" vertex="1" parent="YIulQMEfx4gcLl0Hj4b0-7">
          <mxGeometry x="45" y="340" width="10" height="80" as="geometry" />
        </mxCell>
        <mxCell id="YIulQMEfx4gcLl0Hj4b0-12" value="" style="html=1;points=[[0,0,0,0,5],[0,1,0,0,-5],[1,0,0,0,5],[1,1,0,0,-5]];perimeter=orthogonalPerimeter;outlineConnect=0;targetShapes=umlLifeline;portConstraint=eastwest;newEdgeStyle={&quot;curved&quot;:0,&quot;rounded&quot;:0};" vertex="1" parent="YIulQMEfx4gcLl0Hj4b0-7">
          <mxGeometry x="45" y="430" width="10" height="80" as="geometry" />
        </mxCell>
        <mxCell id="YIulQMEfx4gcLl0Hj4b0-13" value="Выбрали продукт" style="html=1;verticalAlign=bottom;endArrow=block;curved=0;rounded=0;" edge="1" parent="1">
          <mxGeometry width="80" relative="1" as="geometry">
            <mxPoint x="218" y="158" as="sourcePoint" />
            <mxPoint x="408" y="158" as="targetPoint" />
          </mxGeometry>
        </mxCell>
        <mxCell id="YIulQMEfx4gcLl0Hj4b0-14" value="показать модульное окно" style="html=1;verticalAlign=bottom;endArrow=block;curved=0;rounded=0;" edge="1" parent="1" source="YIulQMEfx4gcLl0Hj4b0-6" target="YIulQMEfx4gcLl0Hj4b0-8">
          <mxGeometry width="80" relative="1" as="geometry">
            <mxPoint x="503" y="448" as="sourcePoint" />
            <mxPoint x="253" y="218" as="targetPoint" />
            <Array as="points">
              <mxPoint x="303" y="218" />
            </Array>
          </mxGeometry>
        </mxCell>
        <mxCell id="YIulQMEfx4gcLl0Hj4b0-15" value="добавить в корзину" style="html=1;verticalAlign=bottom;endArrow=block;curved=0;rounded=0;entryX=-0.067;entryY=0.45;entryDx=0;entryDy=0;entryPerimeter=0;" edge="1" parent="1">
          <mxGeometry width="80" relative="1" as="geometry">
            <mxPoint x="218" y="247" as="sourcePoint" />
            <mxPoint x="407.3299999999999" y="247" as="targetPoint" />
          </mxGeometry>
        </mxCell>
        <mxCell id="YIulQMEfx4gcLl0Hj4b0-16" value="внести изменения в корзину" style="html=1;verticalAlign=bottom;endArrow=block;curved=0;rounded=0;" edge="1" parent="1">
          <mxGeometry width="80" relative="1" as="geometry">
            <mxPoint x="418" y="260" as="sourcePoint" />
            <mxPoint x="608" y="260" as="targetPoint" />
          </mxGeometry>
        </mxCell>
        <mxCell id="YIulQMEfx4gcLl0Hj4b0-17" value="получить изменения в корзине" style="html=1;verticalAlign=bottom;endArrow=block;curved=0;rounded=0;" edge="1" parent="1">
          <mxGeometry width="80" relative="1" as="geometry">
            <mxPoint x="608" y="284" as="sourcePoint" />
            <mxPoint x="418" y="284" as="targetPoint" />
          </mxGeometry>
        </mxCell>
        <mxCell id="YIulQMEfx4gcLl0Hj4b0-18" value="отобразить изменения в корзине" style="html=1;verticalAlign=bottom;endArrow=block;curved=0;rounded=0;" edge="1" parent="1">
          <mxGeometry width="80" relative="1" as="geometry">
            <mxPoint x="408" y="300" as="sourcePoint" />
            <mxPoint x="218" y="300" as="targetPoint" />
          </mxGeometry>
        </mxCell>
        <mxCell id="YIulQMEfx4gcLl0Hj4b0-19" value="продукты" style="text;strokeColor=none;fillColor=none;align=left;verticalAlign=top;spacingLeft=4;spacingRight=4;overflow=hidden;rotatable=0;points=[[0,0.5],[1,0.5]];portConstraint=eastwest;whiteSpace=wrap;html=1;flipV=1;flipH=1;" vertex="1" parent="1">
          <mxGeometry x="628" y="120" width="90" height="26" as="geometry" />
        </mxCell>
        <mxCell id="YIulQMEfx4gcLl0Hj4b0-20" value="корзина" style="text;strokeColor=none;fillColor=none;align=left;verticalAlign=top;spacingLeft=4;spacingRight=4;overflow=hidden;rotatable=0;points=[[0,0.5],[1,0.5]];portConstraint=eastwest;whiteSpace=wrap;html=1;" vertex="1" parent="1">
          <mxGeometry x="628" y="271" width="100" height="26" as="geometry" />
        </mxCell>
        <mxCell id="YIulQMEfx4gcLl0Hj4b0-21" value="ордер" style="text;strokeColor=none;fillColor=none;align=left;verticalAlign=top;spacingLeft=4;spacingRight=4;overflow=hidden;rotatable=0;points=[[0,0.5],[1,0.5]];portConstraint=eastwest;whiteSpace=wrap;html=1;" vertex="1" parent="1">
          <mxGeometry x="623" y="450" width="100" height="26" as="geometry" />
        </mxCell>
        <mxCell id="YIulQMEfx4gcLl0Hj4b0-22" value="получили продукты" style="html=1;verticalAlign=bottom;endArrow=block;curved=0;rounded=0;" edge="1" parent="1">
          <mxGeometry width="80" relative="1" as="geometry">
            <mxPoint x="608" y="121" as="sourcePoint" />
            <mxPoint x="418" y="121" as="targetPoint" />
          </mxGeometry>
        </mxCell>
        <mxCell id="YIulQMEfx4gcLl0Hj4b0-23" value="отобразить продукты" style="html=1;verticalAlign=bottom;endArrow=block;curved=0;rounded=0;" edge="1" parent="1">
          <mxGeometry width="80" relative="1" as="geometry">
            <mxPoint x="408" y="131" as="sourcePoint" />
            <mxPoint x="218" y="131" as="targetPoint" />
          </mxGeometry>
        </mxCell>
        <mxCell id="YIulQMEfx4gcLl0Hj4b0-24" value="оформить ордер" style="html=1;verticalAlign=bottom;endArrow=block;curved=0;rounded=0;" edge="1" parent="1">
          <mxGeometry width="80" relative="1" as="geometry">
            <mxPoint x="218" y="332" as="sourcePoint" />
            <mxPoint x="408" y="332" as="targetPoint" />
          </mxGeometry>
        </mxCell>
        <mxCell id="YIulQMEfx4gcLl0Hj4b0-25" value="отобразить форму" style="html=1;verticalAlign=bottom;endArrow=block;curved=0;rounded=0;" edge="1" parent="1">
          <mxGeometry width="80" relative="1" as="geometry">
            <mxPoint x="408" y="393" as="sourcePoint" />
            <mxPoint x="218" y="393" as="targetPoint" />
            <mxPoint as="offset" />
          </mxGeometry>
        </mxCell>
        <mxCell id="YIulQMEfx4gcLl0Hj4b0-26" value="отправить форму" style="html=1;verticalAlign=bottom;endArrow=block;curved=0;rounded=0;" edge="1" parent="1">
          <mxGeometry width="80" relative="1" as="geometry">
            <mxPoint x="218" y="434" as="sourcePoint" />
            <mxPoint x="408" y="434" as="targetPoint" />
          </mxGeometry>
        </mxCell>
        <mxCell id="YIulQMEfx4gcLl0Hj4b0-27" value="передать данные ордеру" style="html=1;verticalAlign=bottom;endArrow=block;curved=0;rounded=0;" edge="1" parent="1">
          <mxGeometry width="80" relative="1" as="geometry">
            <mxPoint x="418" y="447" as="sourcePoint" />
            <mxPoint x="608" y="447" as="targetPoint" />
          </mxGeometry>
        </mxCell>
        <mxCell id="YIulQMEfx4gcLl0Hj4b0-28" value="передать результат ордера" style="html=1;verticalAlign=bottom;endArrow=block;curved=0;rounded=0;" edge="1" parent="1">
          <mxGeometry width="80" relative="1" as="geometry">
            <mxPoint x="608" y="491" as="sourcePoint" />
            <mxPoint x="418" y="491" as="targetPoint" />
          </mxGeometry>
        </mxCell>
        <mxCell id="YIulQMEfx4gcLl0Hj4b0-29" value="показать результат покупки" style="html=1;verticalAlign=bottom;endArrow=block;curved=0;rounded=0;" edge="1" parent="1">
          <mxGeometry width="80" relative="1" as="geometry">
            <mxPoint x="408" y="512" as="sourcePoint" />
            <mxPoint x="218" y="512" as="targetPoint" />
          </mxGeometry>
        </mxCell>
        <mxCell id="YIulQMEfx4gcLl0Hj4b0-30" value="страница" style="text;strokeColor=none;fillColor=none;align=right;verticalAlign=top;spacingLeft=4;spacingRight=4;overflow=hidden;rotatable=0;points=[[0,0.5],[1,0.5]];portConstraint=eastwest;whiteSpace=wrap;html=1;" vertex="1" parent="1">
          <mxGeometry x="132" y="130" width="68" height="26" as="geometry" />
        </mxCell>
        <mxCell id="YIulQMEfx4gcLl0Hj4b0-31" value="детали" style="text;strokeColor=none;fillColor=none;align=right;verticalAlign=top;spacingLeft=4;spacingRight=4;overflow=hidden;rotatable=0;points=[[0,0.5],[1,0.5]];portConstraint=eastwest;whiteSpace=wrap;html=1;" vertex="1" parent="1">
          <mxGeometry x="140" y="220" width="60" height="26" as="geometry" />
        </mxCell>
        <mxCell id="YIulQMEfx4gcLl0Hj4b0-32" value="корзина" style="text;strokeColor=none;fillColor=none;align=right;verticalAlign=top;spacingLeft=4;spacingRight=4;overflow=hidden;rotatable=0;points=[[0,0.5],[1,0.5]];portConstraint=eastwest;whiteSpace=wrap;html=1;" vertex="1" parent="1">
          <mxGeometry x="138" y="297" width="60" height="26" as="geometry" />
        </mxCell>
        <mxCell id="YIulQMEfx4gcLl0Hj4b0-33" value="Форма ордера" style="text;strokeColor=none;fillColor=none;align=right;verticalAlign=top;spacingLeft=4;spacingRight=4;overflow=hidden;rotatable=0;points=[[0,0.5],[1,0.5]];portConstraint=eastwest;whiteSpace=wrap;html=1;" vertex="1" parent="1">
          <mxGeometry x="138" y="390" width="60" height="40" as="geometry" />
        </mxCell>
        <mxCell id="YIulQMEfx4gcLl0Hj4b0-34" value="Окно подтверждения" style="text;strokeColor=none;fillColor=none;align=right;verticalAlign=top;spacingLeft=4;spacingRight=4;overflow=hidden;rotatable=0;points=[[0,0.5],[1,0.5]];portConstraint=eastwest;whiteSpace=wrap;html=1;" vertex="1" parent="1">
          <mxGeometry x="100" y="490" width="98" height="40" as="geometry" />
        </mxCell>
      </root>
    </mxGraphModel>
  </diagram>
</mxfile>
